<svg width="73" height="20" viewBox="0 0 73 20" fill="none" xmlns="http://www.w3.org/2000/svg">
<path d="M16.7727 6.58756C16.1082 2.43 12.8524 0 8.74229 0C3.71144 0 0 3.76839 0 9.98576C0 16.2031 3.69245 19.9715 8.74229 19.9715C13.0138 19.9715 16.1367 17.2947 16.7727 13.4504L13.8111 13.4409C13.308 15.9279 11.2197 17.2947 8.76127 17.2947C5.42952 17.2947 2.9141 14.7413 2.9141 9.98576C2.9141 5.26815 5.42003 2.67679 8.77077 2.67679C11.2482 2.67679 13.327 4.07214 13.8111 6.58756H16.7727Z" fill="#2F353F"/>
<path d="M26.3384 20C29.5183 20 31.7679 18.4338 32.4134 16.0607L29.7271 15.5766C29.2145 16.953 27.9805 17.6554 26.3669 17.6554C23.9369 17.6554 22.3042 16.0797 22.2283 13.2701H32.5937V12.2639C32.5937 6.99573 29.4423 4.93593 26.1391 4.93593C22.0764 4.93593 19.3996 8.03037 19.3996 12.5107C19.3996 17.0384 22.0384 20 26.3384 20ZM22.2378 11.1438C22.3517 9.07451 23.8514 7.28049 26.158 7.28049C28.3602 7.28049 29.803 8.91315 29.8125 11.1438H22.2378Z" fill="#2F353F"/>
<path d="M35.7428 19.7057H38.5809V10.8021C38.5809 8.89416 40.0522 7.5178 42.0645 7.5178C42.6531 7.5178 43.3175 7.62221 43.5453 7.68866V4.9739C43.2606 4.93593 42.7005 4.90745 42.3398 4.90745C40.6312 4.90745 39.1694 5.87565 38.6379 7.44186H38.486V5.12577H35.7428V19.7057Z" fill="#2F353F"/>
<path d="M51.7632 20C54.943 20 57.1927 18.4338 57.8382 16.0607L55.1519 15.5766C54.6393 16.953 53.4053 17.6554 51.7916 17.6554C49.3616 17.6554 47.729 16.0797 47.6531 13.2701H58.0185V12.2639C58.0185 6.99573 54.8671 4.93593 51.5638 4.93593C47.5012 4.93593 44.8244 8.03037 44.8244 12.5107C44.8244 17.0384 47.4632 20 51.7632 20ZM47.6626 11.1438C47.7765 9.07451 49.2762 7.28049 51.5828 7.28049C53.785 7.28049 55.2278 8.91315 55.2373 11.1438H47.6626Z" fill="#2F353F"/>
<path d="M72.093 8.68533C71.5045 6.41671 69.7295 4.93593 66.5781 4.93593C63.2843 4.93593 60.9492 6.673 60.9492 9.25486C60.9492 11.3242 62.2022 12.7005 64.9359 13.308L67.4039 13.8491C68.8087 14.1623 69.4637 14.7888 69.4637 15.7C69.4637 16.8296 68.2582 17.7124 66.3977 17.7124C64.6986 17.7124 63.607 16.9815 63.2653 15.5482L60.5221 15.9658C60.9967 18.5477 63.1419 20 66.4167 20C69.9383 20 72.3778 18.13 72.3778 15.4912C72.3778 13.4314 71.0679 12.1595 68.3911 11.5425L66.075 11.0109C64.4708 10.6312 63.7779 10.0902 63.7874 9.10299C63.7779 7.98291 64.9929 7.18557 66.6066 7.18557C68.3721 7.18557 69.1884 8.16327 69.5206 9.14096L72.093 8.68533Z" fill="#2F353F"/>
</svg>
